<svg id="Layer_1" data-name="Layer 1" xmlns="http://www.w3.org/2000/svg" xmlns:xlink="http://www.w3.org/1999/xlink" viewBox="0 0 1913.21154 1869.98218"><defs><style>.cls-1,.cls-2{fill:#ffd7eb;}.cls-2{opacity:0.97;}.cls-3{opacity:0.55;}.cls-4{clip-path:url(#clip-path);}.cls-5{clip-path:url(#clip-path-2);}.cls-6{clip-path:url(#clip-path-3);}.cls-7{clip-path:url(#clip-path-4);}.cls-8{clip-path:url(#clip-path-5);}.cls-9{clip-path:url(#clip-path-6);}.cls-10{clip-path:url(#clip-path-7);}.cls-11{clip-path:url(#clip-path-8);}.cls-12{clip-path:url(#clip-path-9);}.cls-13{clip-path:url(#clip-path-10);}.cls-14{opacity:0.75;font-size:42.04461px;font-family:DMSerifText-Regular, DM Serif Text;}.cls-15{letter-spacing:-0.02499em;}</style><clipPath id="clip-path" transform="translate(448.28976 353.83294)"><path class="cls-1" d="M486.27481,765.77636c45.86462-31.26984,51.41106-110.37645,13.30278-177.97236-37.20951-66.00174-105.00773-101.46224-154.80739-80.10964-41.68966,15.60291-103.32088,46.75209-159.54737,111.658-48.83156,56.36954-76.73608,118.74877-92.95071,167.94284-5.3841,16.335,7.60689,39.36728,24.2053,42.81618,54.41648,11.30694,126.08481,18.54361,203.52032,4.07622C394.06947,820.34866,449.10582,791.19271,486.27481,765.77636Z"/></clipPath><clipPath id="clip-path-2" transform="translate(448.28976 353.83294)"><path class="cls-1" d="M337.38324,441.85164c17.15842,50.92827,80.90013,78.02791,143.253,61.72746,60.88234-15.916,102.39121-68.49067,94.076-120.28552a439.08139,439.08139,0,0,0-62.04678-177.963c-37.16083-60.63828-83.09326-103.67635-120.38288-132.28407-12.38208-9.49924-33.629-3.93943-39.50749,10.38662C333.503,130.39992,314.388,194.38483,311.98006,269.7144A487.0223,487.0223,0,0,0,337.38324,441.85164Z"/></clipPath><clipPath id="clip-path-3" transform="translate(448.28976 353.83294)"><path class="cls-1" d="M356.04645,558.87107c52.66719,27.90854,123.83237,2.17544,160.56913-57.17483,35.8704-57.95055,28.28288-130.77116-18.06415-165.94327a498.36448,498.36448,0,0,0-185.68936-95.971c-75.92535-20.79626-145.26283-21.02258-196.69043-16.15093C99.095,225.24864,86.581,245.47674,92.9397,261.2827c20.84657,51.81851,54.88711,117.10711,110.8381,179.0373A552.83689,552.83689,0,0,0,356.04645,558.87107Z"/></clipPath><clipPath id="clip-path-4" transform="translate(448.28976 353.83294)"><path class="cls-2" d="M387.44689,658.23036c54.99189-7.29982,95.24979-70.97867,91.30916-142.92589-3.84768-70.25042-48.69307-127.55719-102.78133-130.13535-44.266-4.0527-113.31221-3.30551-192.58339,27.79528C114.54589,439.97487,61.74491,480.55923,25.287,514.93532,13.18109,526.35,14.52931,550.86744,27.843,560.53511,71.4908,592.22974,132.3918,627.591,208.137,647.2183A465.18091,465.18091,0,0,0,387.44689,658.23036Z"/></clipPath><clipPath id="clip-path-5" transform="translate(448.28976 353.83294)"><path class="cls-1" d="M628.95188,675.02475c-.89608-54.0088-57.83554-100.06326-127.69315-104.28831-68.2101-4.12544-128.51448,32.85187-137.048,84.88317-8.85827,42.36556-15.8554,109.23708,5.29071,189.38977,18.365,69.611,51.62006,125.21859,80.712,164.32409,9.66,12.98505,33.466,14.41963,44.28194,2.62129,35.459-38.67986,76.38434-93.63909,103.78831-164.71459A454.05932,454.05932,0,0,0,628.95188,675.02475Z"/></clipPath><clipPath id="clip-path-6" transform="translate(448.28976 353.83294)"><path class="cls-1" d="M716.36348,517.43785c-43.46314-34.51239-119.62759-17.20164-171.60534,38.16458-50.75192,54.06046-63.39843,128.37568-28.06759,169.443,27.438,35.02749,75.60945,84.50438,153.90536,119.23515,67.99849,30.16294,135.25415,38.795,186.52266,40.11819,17.02379.43935,34.73256-18.43171,32.90293-35.13318-5.99827-54.75434-21.10427-124.6843-58.40551-193.885A442.49182,442.49182,0,0,0,716.36348,517.43785Z"/></clipPath><clipPath id="clip-path-7" transform="translate(448.28976 353.83294)"><path class="cls-1" d="M612.653,399.29886c-63.22322,2.8254-114.35224,63.55771-115.841,136.23435-1.45372,70.96264,44.85,132.2751,106.22381,139.3092a539.18783,539.18783,0,0,0,221.59507-12.13828c80.63479-21.50966,144.12788-57.98725,188.49617-89.56355,14.73257-10.485,15.23379-35.25144.877-46.06688-47.06735-35.45751-113.47565-76.019-198.09325-101.97682A598.17134,598.17134,0,0,0,612.653,399.29886Z"/></clipPath><clipPath id="clip-path-8" transform="translate(448.28976 353.83294)"><path class="cls-1" d="M541.35686,301.65376c-41.8531,36.47335-37.68159,116.267,8.56367,179.61109,45.15458,61.85023,117.03517,89.68139,164.02357,62.68849,39.61475-20.32293,97.18781-58.45606,145.23954-129.76144,41.73193-61.92735,61.88173-127.50569,72.00332-178.56861,3.3609-16.95553-12.40263-38.53841-29.35911-40.11548-55.59041-5.17028-127.86656-4.31893-203.22708,18.90443C626.51389,236.62678,575.26568,272.02039,541.35686,301.65376Z"/></clipPath><clipPath id="clip-path-9" transform="translate(448.28976 353.83294)"><path class="cls-1" d="M409.53965,369.20015c-8.15462,52.95679,35.39229,106.01721,97.492,119.978,60.63513,13.63159,120.9822-14.05522,137.28578-63.75105a441.8215,441.8215,0,0,0,26.664-186.003C666.02019,168.74778,645.35,109.67468,625.68461,67.32937c-6.52992-14.06084-27.693-18.81327-39.37371-8.79392-38.29407,32.8476-84.203,80.85045-120.63019,146.52029A490.0832,490.0832,0,0,0,409.53965,369.20015Z"/></clipPath><clipPath id="clip-path-10" transform="translate(448.28976 353.83294)"><circle id="seed_path" class="cls-1" cx="502.16508" cy="515.13" r="116.93657"/></clipPath><image id="image" width="1000" height="1000" xlink:href="https://cdn.jsdelivr.net/gh/Dhruvapratapverma/Dhruva-portfolio/sketch1748864362150.png"/></defs><g id="petal7" class="cls-3"><g id="petal7_path"><path class="cls-1" d="M486.27481,765.77636c45.86462-31.26984,51.41106-110.37645,13.30278-177.97236-37.20951-66.00174-105.00773-101.46224-154.80739-80.10964-41.68966,15.60291-103.32088,46.75209-159.54737,111.658-48.83156,56.36954-76.73608,118.74877-92.95071,167.94284-5.3841,16.335,7.60689,39.36728,24.2053,42.81618,54.41648,11.30694,126.08481,18.54361,203.52032,4.07622C394.06947,820.34866,449.10582,791.19271,486.27481,765.77636Z" transform="translate(448.28976 353.83294)"/><g class="cls-4"><use transform="matrix(-0.5996, -1.09357, 0.76806, -0.42112, 599.59579, 1801.77308)" xlink:href="#image"/></g></g></g><g id="petal1" class="cls-3"><path class="cls-1" d="M337.38324,441.85164c17.15842,50.92827,80.90013,78.02791,143.253,61.72746,60.88234-15.916,102.39121-68.49067,94.076-120.28552a439.08139,439.08139,0,0,0-62.04678-177.963c-37.16083-60.63828-83.09326-103.67635-120.38288-132.28407-12.38208-9.49924-33.629-3.93943-39.50749,10.38662C333.503,130.39992,314.388,194.38483,311.98006,269.7144A487.0223,487.0223,0,0,0,337.38324,441.85164Z" transform="translate(448.28976 353.83294)"/><g class="cls-5"><use transform="matrix(1.00563, -0.24813, 0.2034, 0.82435, 292.28976, 402.96031)" xlink:href="#image"/></g></g><g id="petal9" class="cls-3"><g id="petal9_path"><path class="cls-1" d="M356.04645,558.87107c52.66719,27.90854,123.83237,2.17544,160.56913-57.17483,35.8704-57.95055,28.28288-130.77116-18.06415-165.94327a498.36448,498.36448,0,0,0-185.68936-95.971c-75.92535-20.79626-145.26283-21.02258-196.69043-16.15093C99.095,225.24864,86.581,245.47674,92.9397,261.2827c20.84657,51.81851,54.88711,117.10711,110.8381,179.0373A552.83689,552.83689,0,0,0,356.04645,558.87107Z" transform="translate(448.28976 353.83294)"/><g class="cls-6"><use transform="matrix(0.60383, -0.94542, 0.79377, 0.50698, 57.29648, 945.41565)" xlink:href="#image"/></g></g><g id="text9"><path d="M178.49463,281.16211l3.84961,2.52441a8.40625,8.40625,0,0,1-3.23975,2.68116,7.50292,7.50292,0,0,1-4.06543.61132,10.41967,10.41967,0,0,1-4.48633-1.76318,9.57145,9.57145,0,0,1-2.82324-2.74365,8.10483,8.10483,0,0,1-1.26269-3.39649,9.54412,9.54412,0,0,1,.31933-3.8413,14.63114,14.63114,0,0,1,1.91309-4.06739l.85254-1.30078a14.24072,14.24072,0,0,1,2.99121-3.36865,9.67394,9.67394,0,0,1,3.43262-1.80908,8.29692,8.29692,0,0,1,3.63427-.19434,9.35246,9.35246,0,0,1,3.60694,1.4624,10.0828,10.0828,0,0,1,3.40283,3.44678,7.48041,7.48041,0,0,1,.97412,3.98926,9.56951,9.56951,0,0,1-1.15381,4.105l-3.86328-2.5332a6.02,6.02,0,0,0,.812-2.22022,3.11932,3.11932,0,0,0-.37988-1.96191,5.36735,5.36735,0,0,0-1.80127-1.76075,4.456,4.456,0,0,0-1.92285-.74511,3.73351,3.73351,0,0,0-1.92774.30078,6.32648,6.32648,0,0,0-1.939,1.37012,15.07609,15.07609,0,0,0-1.94922,2.45117l-.86914,1.32666a15.7224,15.7224,0,0,0-1.45606,2.69922,6.80155,6.80155,0,0,0-.54,2.29736,3.5875,3.5875,0,0,0,.4414,1.91016,4.48794,4.48794,0,0,0,1.50879,1.53222,5.405,5.405,0,0,0,2.24951.92285,3.23238,3.23238,0,0,0,1.9541-.35693A5.42861,5.42861,0,0,0,178.49463,281.16211Z" transform="translate(448.28976 353.83294)"/><path d="M197.45312,274.20605,184.48535,293.9834l-3.7207-2.44043,12.96777-19.77735Z" transform="translate(448.28976 353.83294)"/><path d="M200.59961,284.62793l-9.13477,13.93164-3.72168-2.44043,9.13477-13.93164Zm-1.57129-6.22314a2.09511,2.09511,0,0,1,1.44336-.96778,2.91733,2.91733,0,0,1,3.03223,1.98828,2.21372,2.21372,0,0,1-1.75586,2.67823,2.91857,2.91857,0,0,1-3.03223-1.98829A2.09614,2.09614,0,0,1,199.02832,278.40479Z" transform="translate(448.28976 353.83294)"/><path d="M200.77344,305.03125a9.216,9.216,0,0,1-2.56934-2.42969,7.46444,7.46444,0,0,1-1.23144-2.87939,7.62974,7.62974,0,0,1,.043-3.05615,8.59172,8.59172,0,0,1,1.24024-2.93262l.33789-.51514a10.60762,10.60762,0,0,1,2.35059-2.60156,8.06621,8.06621,0,0,1,2.78955-1.43066,6.76254,6.76254,0,0,1,3.02881-.14063A8.18787,8.18787,0,0,1,209.834,290.314a7.93957,7.93957,0,0,1,2.30616,2.21143,6.23885,6.23885,0,0,1,1.01318,2.65283,7.24482,7.24482,0,0,1-.23682,2.9292,10.96494,10.96494,0,0,1-1.42822,3.04981l-1.01318,1.54492-11.07324-7.26074,1.62109-2.47217,7.42871,4.87158.186-.2832a3.98077,3.98077,0,0,0,.63085-1.56592,2.67466,2.67466,0,0,0-.19335-1.5166,3.05033,3.05033,0,0,0-1.17969-1.28955,2.8452,2.8452,0,0,0-1.47266-.50489,2.91372,2.91372,0,0,0-1.44775.33936,5.55,5.55,0,0,0-1.37989,1.0376,10.0997,10.0997,0,0,0-1.27978,1.60058l-.33789.51465a5.75553,5.75553,0,0,0-.77442,1.70215,4.32746,4.32746,0,0,0-.12011,1.66992,3.62187,3.62187,0,0,0,.55908,1.50781,4.21655,4.21655,0,0,0,1.26221,1.2334,5.3811,5.3811,0,0,0,2.13183.83594,4.78045,4.78045,0,0,0,2.27979-.208l.52051,3.13916a6.62064,6.62064,0,0,1-1.98584.4292,7.60577,7.60577,0,0,1-2.4292-.23974A8.7298,8.7298,0,0,1,200.77344,305.03125Z" transform="translate(448.28976 353.83294)"/><path d="M219.58594,301.33008l-7.18457,10.95752-3.708-2.43164,9.13476-13.93164,3.47657,2.27929Zm-2.83643,3.14795-1.00488-.65869a10.86785,10.86785,0,0,1,2.227-2.52637,7.69565,7.69565,0,0,1,2.51367-1.38965,5.85778,5.85778,0,0,1,2.605-.2251,6.20168,6.20168,0,0,1,2.54248.99463,6.494,6.494,0,0,1,1.60449,1.457,4.16753,4.16753,0,0,1,.80567,1.81739,4.91794,4.91794,0,0,1-.1709,2.22607,10.17549,10.17549,0,0,1-1.31445,2.69238l-5.8252,8.88428-3.7334-2.44824,5.834-8.89746a3.90025,3.90025,0,0,0,.68652-1.61133,1.76049,1.76049,0,0,0-.27588-1.22119,3.68394,3.68394,0,0,0-1.07763-1.01026,3.19108,3.19108,0,0,0-1.48682-.55175,3.0291,3.0291,0,0,0-1.43848.22607,4.64382,4.64382,0,0,0-1.332.8667A7.08045,7.08045,0,0,0,216.74951,304.478Z" transform="translate(448.28976 353.83294)"/><path d="M235.6626,302.70215l3.708,2.43164-8.63721,13.17187a2.53733,2.53733,0,0,0-.44629,1.03272,1.043,1.043,0,0,0,.19092.76074,2.76137,2.76137,0,0,0,.73144.65381,6.42647,6.42647,0,0,0,.646.37793c.19726.09961.37012.17871.51514.23633l-1.77637,2.73877a8.316,8.316,0,0,1-1.19043-.43067,9.122,9.122,0,0,1-1.28272-.7124,6.18614,6.18614,0,0,1-1.86425-1.80225,3.47274,3.47274,0,0,1-.54-2.22314,5.914,5.914,0,0,1,1.064-2.68994Zm3.84814,7.43945-1.72217,2.62647-8.11132-5.31885,1.72216-2.62647Z" transform="translate(448.28976 353.83294)"/></g></g><g id="petal8" class="cls-3"><g id="petal7_path-2" data-name="petal7_path"><path class="cls-2" d="M387.44689,658.23036c54.99189-7.29982,95.24979-70.97867,91.30916-142.92589-3.84768-70.25042-48.69307-127.55719-102.78133-130.13535-44.266-4.0527-113.31221-3.30551-192.58339,27.79528C114.54589,439.97487,61.74491,480.55923,25.287,514.93532,13.18109,526.35,14.52931,550.86744,27.843,560.53511,71.4908,592.22974,132.3918,627.591,208.137,647.2183A465.18091,465.18091,0,0,0,387.44689,658.23036Z" transform="translate(448.28976 353.83294)"/><g class="cls-7"><use transform="matrix(-0.04861, -1.15704, 0.87516, -0.03677, 208.19838, 1463.97824)" xlink:href="#image"/></g></g><g id="text8"><path d="M126.40967,527.0293l-5.70459.29687-.187-3.59765,5.70459-.29688a4.60614,4.60614,0,0,0,2.12988-.55078,2.721,2.721,0,0,0,1.15137-1.28418,3.98453,3.98453,0,0,0,.29248-1.78906,4.52694,4.52694,0,0,0-.481-1.84033,3.10048,3.10048,0,0,0-1.28711-1.32032,3.98808,3.98808,0,0,0-2.17969-.41162l-4.10547.21338.97608,18.7749-4.61279.23926-1.16407-22.38769,8.71826-.45313a9.976,9.976,0,0,1,4.5625.71094,6.87016,6.87016,0,0,1,3.01807,2.45654,7.22883,7.22883,0,0,1,1.19727,3.74561,6.89067,6.89067,0,0,1-.80469,3.80371,6.49881,6.49881,0,0,1-2.75586,2.59472A10.78186,10.78186,0,0,1,126.40967,527.0293Z" transform="translate(448.28976 353.83294)"/><path d="M141.87842,521.18359l.67627,13.00879-4.42823.2295-.86523-16.63721,4.167-.2168Zm4.81836-3.99755.13672,4.11084q-.3252-.03076-.78125-.04493-.45557-.01464-.82422.00489a4.94578,4.94578,0,0,0-1.61035.32226,2.8068,2.8068,0,0,0-1.71973,1.916,5.336,5.336,0,0,0-.17481,1.51953l-.90673-.22949a12.94878,12.94878,0,0,1,.168-2.99219,8.10424,8.10424,0,0,1,.82275-2.42432,4.61982,4.61982,0,0,1,1.44824-1.648,3.89839,3.89839,0,0,1,2.04736-.66162,5.53952,5.53952,0,0,1,.75586.01465A3.11082,3.11082,0,0,1,146.69678,517.186Z" transform="translate(448.28976 353.83294)"/><path d="M148.22021,525.72656l-.0166-.32324a10.47734,10.47734,0,0,1,.34717-3.40137,7.80181,7.80181,0,0,1,1.38281-2.76416,6.92146,6.92146,0,0,1,2.36817-1.90332,8.29864,8.29864,0,0,1,3.31836-.812,8.41343,8.41343,0,0,1,3.40088.46289,6.96717,6.96717,0,0,1,2.57568,1.646,7.74972,7.74972,0,0,1,1.66943,2.605,10.49162,10.49162,0,0,1,.69825,3.34765l.0166.32325a10.45083,10.45083,0,0,1-.34766,3.38672,7.84254,7.84254,0,0,1-1.39062,2.7705,6.873,6.873,0,0,1-2.37549,1.9043,9.27031,9.27031,0,0,1-6.71143.34863,6.86491,6.86491,0,0,1-2.56836-1.64746,7.8343,7.8343,0,0,1-1.66943-2.61035A10.44788,10.44788,0,0,1,148.22021,525.72656Zm4.41211-.55273.01661.32324a9.80342,9.80342,0,0,0,.28564,1.94238A5.081,5.081,0,0,0,153.60938,529a2.968,2.968,0,0,0,1.12451,1.0127,3.15344,3.15344,0,0,0,1.63427.30078,3.08448,3.08448,0,0,0,1.564-.4668,2.91229,2.91229,0,0,0,1.00537-1.12305,5.35149,5.35149,0,0,0,.50928-1.623,9.46059,9.46059,0,0,0,.09082-1.96192l-.0166-.32324a9.15264,9.15264,0,0,0-.292-1.9043,5.39125,5.39125,0,0,0-.6831-1.56836,2.909,2.909,0,0,0-2.74561-1.36035,2.997,2.997,0,0,0-1.5708.48242,3.08126,3.08126,0,0,0-1.0039,1.1543,5.25853,5.25853,0,0,0-.50879,1.63086A9.56231,9.56231,0,0,0,152.63232,525.17383Z" transform="translate(448.28976 353.83294)"/><path d="M166.01221,524.83105l-.0166-.32226a13.03113,13.03113,0,0,1,.25048-3.48926,8.09393,8.09393,0,0,1,1.12061-2.75,5.75276,5.75276,0,0,1,1.95459-1.84228,6.03408,6.03408,0,0,1,2.73633-.75928,5.15787,5.15787,0,0,1,2.59228.48193,5.57674,5.57674,0,0,1,1.9668,1.647,9.8764,9.8764,0,0,1,1.39111,2.5957,18.67092,18.67092,0,0,1,.86573,3.30762l.03662.707a17.80505,17.80505,0,0,1-.52393,3.26562,9.72726,9.72726,0,0,1-1.11719,2.67188,5.62611,5.62611,0,0,1-1.79394,1.82812,5.26136,5.26136,0,0,1-2.55176.749,5.88782,5.88782,0,0,1-2.79248-.48633,5.81292,5.81292,0,0,1-2.12158-1.66309,8.37915,8.37915,0,0,1-1.39209-2.61133A12.38972,12.38972,0,0,1,166.01221,524.83105Zm4.41162-.55175.0166.32226a10.82051,10.82051,0,0,0,.26123,1.91406,5.13659,5.13659,0,0,0,.62061,1.54786,2.80717,2.80717,0,0,0,1.03906,1.00976,2.76372,2.76372,0,0,0,1.50342.29981,3.20453,3.20453,0,0,0,1.84912-.61328,3.26694,3.26694,0,0,0,1.05566-1.48047,6.02853,6.02853,0,0,0,.34522-2.11524l-.105-2.01367a7.64552,7.64552,0,0,0-.35938-1.73242,4.004,4.004,0,0,0-.71484-1.29541,2.94078,2.94078,0,0,0-1.09034-.80713,3.30052,3.30052,0,0,0-1.48486-.23145,2.69858,2.69858,0,0,0-1.45556.46875,2.93659,2.93659,0,0,0-.936,1.12061,5.339,5.339,0,0,0-.4707,1.62061A10.3853,10.3853,0,0,0,170.42383,524.2793Zm6.33935,4.49511-1.03906-19.98877,4.4585-.23193,1.228,23.61817-4.01318.209Z" transform="translate(448.28976 353.83294)"/><path d="M194.80322,524.05859l1.30616-.09668a11.8029,11.8029,0,0,1-.22461,3.10157,7.31023,7.31023,0,0,1-1.02539,2.52148,5.31121,5.31121,0,0,1-1.85352,1.71484,6.17544,6.17544,0,0,1-2.72217.71875,6.951,6.951,0,0,1-2.25537-.22851,4.38744,4.38744,0,0,1-1.80957-1.001,5.07441,5.07441,0,0,1-1.23779-1.86426,8.70362,8.70362,0,0,1-.55518-2.81542l-.55908-10.74805,4.42871-.23.56055,10.77881a3.81777,3.81777,0,0,0,.2417,1.2373,2.13351,2.13351,0,0,0,.543.80274,1.839,1.839,0,0,0,.78467.42285,3.2407,3.2407,0,0,0,.98389.08789,3.721,3.721,0,0,0,2.13135-.666,2.97214,2.97214,0,0,0,1.04394-1.57226A6.58632,6.58632,0,0,0,194.80322,524.05859Zm-.314,3.44043-.65821-12.65576,4.42823-.23.86523,16.6377-4.167.21679Z" transform="translate(448.28976 353.83294)"/><path d="M209.20117,527.56738a3.20549,3.20549,0,0,0,1.4292-.39062,2.43278,2.43278,0,0,0,.94483-.94434,2.60751,2.60751,0,0,0,.30664-1.37988l4.167-.2168a5.51548,5.51548,0,0,1-.77637,3.16309,6.36671,6.36671,0,0,1-2.36426,2.26562,7.67532,7.67532,0,0,1-3.43506.957,8.17742,8.17742,0,0,1-3.4082-.4707,6.55111,6.55111,0,0,1-2.48437-1.667,7.72823,7.72823,0,0,1-1.56885-2.60059,10.98376,10.98376,0,0,1-.64746-3.25879l-.02344-.44629a11.05073,11.05073,0,0,1,.30566-3.32128,7.7132,7.7132,0,0,1,1.29053-2.751,6.57537,6.57537,0,0,1,2.29-1.915,8.07989,8.07989,0,0,1,3.31885-.81982,7.82953,7.82953,0,0,1,3.63086.59765,5.9229,5.9229,0,0,1,2.5459,2.11084,6.599,6.599,0,0,1,1.07812,3.38965l-4.167.2168a3.53786,3.53786,0,0,0-.42432-1.48877,2.68027,2.68027,0,0,0-1.00976-1.03565,2.74806,2.74806,0,0,0-1.55078-.32666,2.828,2.828,0,0,0-1.563.48877,2.71493,2.71493,0,0,0-.89551,1.15772,5.43753,5.43753,0,0,0-.38672,1.6084,12.63523,12.63523,0,0,0-.03418,1.85888l.02344.44629a13.56054,13.56054,0,0,0,.21924,1.85352,5.08267,5.08267,0,0,0,.55127,1.55957,2.72564,2.72564,0,0,0,1.01757,1.042A2.89356,2.89356,0,0,0,209.20117,527.56738Z" transform="translate(448.28976 353.83294)"/><path d="M226.18262,513.16162l.16308,3.1377-9.687.50341-.16308-3.13769Zm-7.50147-3.72558,4.42823-.23047.81787,15.73a2.53977,2.53977,0,0,0,.24951,1.09668,1.04807,1.04807,0,0,0,.60449.501,2.75313,2.75313,0,0,0,.97656.09571,6.58424,6.58424,0,0,0,.74365-.07715c.21875-.03711.40479-.0752.55665-.11426l.18457,3.25879a8.23641,8.23641,0,0,1-1.21436.35644,9.09869,9.09869,0,0,1-1.45557.1836,6.185,6.185,0,0,1-2.56982-.35254,3.46552,3.46552,0,0,1-1.749-1.47363,5.92483,5.92483,0,0,1-.73194-2.79883Z" transform="translate(448.28976 353.83294)"/><path d="M238.31055,524.60449a1.43841,1.43841,0,0,0-.32129-.84668,2.47971,2.47971,0,0,0-1.06006-.66211,10.65266,10.65266,0,0,0-2.17627-.49609,15.63993,15.63993,0,0,1-2.38184-.57813,7.74979,7.74979,0,0,1-1.9292-.9248,4.41807,4.41807,0,0,1-1.311-1.35742,3.898,3.898,0,0,1-.54443-1.86084,4.40341,4.40341,0,0,1,.352-1.99219,5.01825,5.01825,0,0,1,1.22119-1.70459,6.28423,6.28423,0,0,1,2.0332-1.23193,8.93917,8.93917,0,0,1,2.77-.55225,9.15416,9.15416,0,0,1,3.76416.49854,5.59315,5.59315,0,0,1,2.49756,1.77392,4.70417,4.70417,0,0,1,.981,2.7002l-4.42823.23047a2.46518,2.46518,0,0,0-.33007-1.146,1.93689,1.93689,0,0,0-.87256-.77246,3.073,3.073,0,0,0-1.46875-.22412,2.95313,2.95313,0,0,0-1.26319.32031,1.98,1.98,0,0,0-.78711.71924,1.63206,1.63206,0,0,0-.23632.94482,1.42275,1.42275,0,0,0,.19726.67578,1.57108,1.57108,0,0,0,.5586.51856,4.34491,4.34491,0,0,0,.98535.4043,10.63329,10.63329,0,0,0,1.48779.29931,17.35774,17.35774,0,0,1,3.26318.79492,5.68738,5.68738,0,0,1,2.32813,1.481,4.0193,4.0193,0,0,1,.96728,2.59473,4.24458,4.24458,0,0,1-.38623,2.05566,4.83149,4.83149,0,0,1-1.33105,1.67969,6.94667,6.94667,0,0,1-2.15137,1.17578,10.24784,10.24784,0,0,1-2.86377.52637,8.482,8.482,0,0,1-3.97168-.626,6.15192,6.15192,0,0,1-2.53955-1.9873,4.84462,4.84462,0,0,1-.96-2.59375l4.19824-.21875a2.42435,2.42435,0,0,0,.54541,1.43652,2.45216,2.45216,0,0,0,1.16358.74023,4.336,4.336,0,0,0,1.49658.16895,3.71214,3.71214,0,0,0,1.41748-.3125,1.99671,1.99671,0,0,0,.83545-.69141A1.55241,1.55241,0,0,0,238.31055,524.60449Z" transform="translate(448.28976 353.83294)"/></g></g><g id="petal6" class="cls-3"><path class="cls-1" d="M628.95188,675.02475c-.89608-54.0088-57.83554-100.06326-127.69315-104.28831-68.2101-4.12544-128.51448,32.85187-137.048,84.88317-8.85827,42.36556-15.8554,109.23708,5.29071,189.38977,18.365,69.611,51.62006,125.21859,80.712,164.32409,9.66,12.98505,33.466,14.41963,44.28194,2.62129,35.459-38.67986,76.38434-93.63909,103.78831-164.71459A454.05932,454.05932,0,0,0,628.95188,675.02475Z" transform="translate(448.28976 353.83294)"/><g class="cls-8"><use transform="matrix(-0.86501, -0.0634, 0.04808, -0.65594, 1328.54946, 1560.61688)" xlink:href="#image"/></g></g><g id="petal5" class="cls-3"><g id="petal5_path"><path class="cls-1" d="M716.36348,517.43785c-43.46314-34.51239-119.62759-17.20164-171.60534,38.16458-50.75192,54.06046-63.39843,128.37568-28.06759,169.443,27.438,35.02749,75.60945,84.50438,153.90536,119.23515,67.99849,30.16294,135.25415,38.795,186.52266,40.11819,17.02379.43935,34.73256-18.43171,32.90293-35.13318-5.99827-54.75434-21.10427-124.6843-58.40551-193.885A442.49182,442.49182,0,0,0,716.36348,517.43785Z" transform="translate(448.28976 353.83294)"/><g class="cls-9"><use transform="matrix(-0.84607, 0.87969, -0.63132, -0.60719, 1913.21154, 990.28925)" xlink:href="#image"/></g></g><g id="text5"><path d="M778.63281,779.86426,761.80566,789.834l-3.69726-3.23535,21.03222-11.38476,2.35254,2.05859Zm-3.13965,10.8584-2.38281,2.72265-8.91015-7.79785,2.38281-2.72266Zm-5.28711,6.46289,7.63868-18.01172,2.15429-3.209,2.375,2.07813-8.46093,22.38672Z" transform="translate(448.28976 353.83294)"/><path d="M787.18457,794.73438l-8.57812,9.80273-3.33692-2.91992,10.97168-12.53711,3.13965,2.748Zm6.24219.49023-2.7666,3.043c-.14161-.165-.31739-.35645-.5293-.57617q-.31641-.32812-.59473-.57129a4.93667,4.93667,0,0,0-1.3789-.88965,2.8037,2.8037,0,0,0-2.56934.17578,5.30773,5.30773,0,0,0-1.18457.96875l-.48926-.79688a12.96665,12.96665,0,0,1,2.20508-2.02929,8.1095,8.1095,0,0,1,2.2793-1.167,4.63911,4.63911,0,0,1,2.1875-.17188,3.90227,3.90227,0,0,1,1.92968.95215,5.41909,5.41909,0,0,1,.53126.53711A3.01547,3.01547,0,0,1,793.42676,795.22461Z" transform="translate(448.28976 353.83294)"/><path d="M798.86621,794.666l3.33691,2.91992-10.373,11.85351a2.55225,2.55225,0,0,0-.58594.96094,1.04626,1.04626,0,0,0,.085.78027,2.769,2.769,0,0,0,.63379.74805,6.42791,6.42791,0,0,0,.58691.46289c.1836.12695.34278.22852.47852.30664l-2.13867,2.4668a8.51757,8.51757,0,0,1-1.11914-.59082,9.13476,9.13476,0,0,1-1.17188-.88281,6.18964,6.18964,0,0,1-1.59765-2.043,3.47777,3.47777,0,0,1-.22852-2.27637,5.92965,5.92965,0,0,1,1.42676-2.5166Zm2.78418,7.89941-2.06836,2.36426-7.2998-6.38867,2.06836-2.36329Z" transform="translate(448.28976 353.83294)"/></g></g><g id="petal4" class="cls-3"><g id="petal4_path"><path class="cls-1" d="M612.653,399.29886c-63.22322,2.8254-114.35224,63.55771-115.841,136.23435-1.45372,70.96264,44.85,132.2751,106.22381,139.3092a539.18783,539.18783,0,0,0,221.59507-12.13828c80.63479-21.50966,144.12788-57.98725,188.49617-89.56355,14.73257-10.485,15.23379-35.25144.877-46.06688-47.06735-35.45751-113.47565-76.019-198.09325-101.97682A598.17134,598.17134,0,0,0,612.653,399.29886Z" transform="translate(448.28976 353.83294)"/><g class="cls-10"><use transform="matrix(-0.04075, 1.16756, -0.99956, -0.03489, 1562.73357, 361.18003)" xlink:href="#image"/></g></g><g id="text4"><path d="M750.10938,539.169l4.60351-.04883.15527,14.81054a8.11359,8.11359,0,0,1-1.05468,4.36914,6.90461,6.90461,0,0,1-3.00586,2.69629,11.5291,11.5291,0,0,1-8.89844.09278A6.87408,6.87408,0,0,1,738.833,558.457a8.08836,8.08836,0,0,1-1.14649-4.3457l-.15527-14.81055,4.61914-.04883.15527,14.81055a5.54169,5.54169,0,0,0,.501,2.459,3.0143,3.0143,0,0,0,1.39356,1.38672,5.34494,5.34494,0,0,0,4.28027-.04492,2.99378,2.99378,0,0,0,1.33984-1.415,5.58862,5.58862,0,0,0,.44434-2.46875Z" transform="translate(448.28976 353.83294)"/><path d="M758.208,540.5a2.09634,2.09634,0,0,1,.65918-1.6084,2.91907,2.91907,0,0,1,3.626-.03808,2.21365,2.21365,0,0,1,.03321,3.20312,2.92232,2.92232,0,0,1-3.626.03809A2.09865,2.09865,0,0,1,758.208,540.5Zm4.77051,4.292.17578,16.65918-4.44922.04688-.17578-16.65918Z" transform="translate(448.28976 353.83294)"/><path d="M776.16016,538.89551l-7.9668,24.42676-3.29492.03515,7.96777-24.42773Z" transform="translate(448.28976 353.83294)"/><path d="M790.94043,538.74023l4.60254-.04882.15527,14.81054a8.11351,8.11351,0,0,1-1.05469,4.36914,6.90453,6.90453,0,0,1-3.00585,2.69629,10.47886,10.47886,0,0,1-4.43165.93848,10.5967,10.5967,0,0,1-4.46679-.8457,6.87414,6.87414,0,0,1-3.07617-2.63184,8.08836,8.08836,0,0,1-1.14649-4.3457l-.15527-14.81055,4.61914-.04883.15527,14.81055a5.52729,5.52729,0,0,0,.502,2.459,3.01423,3.01423,0,0,0,1.39355,1.38672,5.3557,5.3557,0,0,0,4.28027-.04492,2.99375,2.99375,0,0,0,1.33985-1.415,5.58848,5.58848,0,0,0,.44433-2.46875Z" transform="translate(448.28976 353.83294)"/><path d="M802.70117,544.375l2.80957,5.03613,2.77832-5.09472,4.72656-.04981-4.625,8.19434,5.01661,8.46289-4.74219.0498-3.05762-5.32715-2.94629,5.38965-4.74218.04981,4.83691-8.56641L797.959,544.4248Z" transform="translate(448.28976 353.83294)"/><path d="M827.8457,538.35254l.23535,22.417-4.61816.04883-.23535-22.417Zm2.49805,22.39355-4.88086.05079-.00684-3.60254,4.84961-.05079a5.43966,5.43966,0,0,0,3.05567-.85644,5.05106,5.05106,0,0,0,1.86035-2.42969,10.258,10.258,0,0,0,.59961-3.83984l-.01172-1.09375a11.39893,11.39893,0,0,0-.39453-3.03028,6.108,6.108,0,0,0-1.09277-2.18847,4.498,4.498,0,0,0-1.75391-1.3291,5.84171,5.84171,0,0,0-2.376-.42969l-5.01953.05273-.03711-3.61816,5.01953-.05274a10.81776,10.81776,0,0,1,4.126.71876,9.36545,9.36545,0,0,1,3.26367,2.14453,9.8161,9.8161,0,0,1,2.15235,3.35742,12.17642,12.17642,0,0,1,.792,4.35644l.01172,1.0625a12.22806,12.22806,0,0,1-.7002,4.36524,9.77594,9.77594,0,0,1-2.07422,3.40137A9.32216,9.32216,0,0,1,834.5,559.94043,11.039,11.039,0,0,1,830.34375,560.74609Z" transform="translate(448.28976 353.83294)"/><path d="M851.34766,560.833a9.21716,9.21716,0,0,1-3.48731-.58692,7.45229,7.45229,0,0,1-2.627-1.70507,7.634,7.634,0,0,1-1.667-2.56153,8.58786,8.58786,0,0,1-.60352-3.127l-.00684-.61621a10.65766,10.65766,0,0,1,.50293-3.47071,8.05974,8.05974,0,0,1,1.51954-2.74023,6.7407,6.7407,0,0,1,2.4375-1.80371,8.16913,8.16913,0,0,1,3.25683-.6582,7.94352,7.94352,0,0,1,3.14746.55175,6.21129,6.21129,0,0,1,2.31934,1.63868,7.26072,7.26072,0,0,1,1.43457,2.56347,10.95379,10.95379,0,0,1,.51269,3.32813l.01954,1.84765-13.24024.13965-.03125-2.95605,8.88379-.09375-.00391-.33887a3.9668,3.9668,0,0,0-.34765-1.65137,2.68161,2.68161,0,0,0-1.00586-1.15234,3.04968,3.04968,0,0,0-1.69824-.41211,2.83068,2.83068,0,0,0-1.50391.40039,2.9067,2.9067,0,0,0-1.01367,1.08789,5.54834,5.54834,0,0,0-.56739,1.63086,10.13311,10.13311,0,0,0-.17187,2.042l.00684.61621a5.74692,5.74692,0,0,0,.30468,1.84473,4.30117,4.30117,0,0,0,.83106,1.45313,3.60724,3.60724,0,0,0,1.30371.9414,4.21767,4.21767,0,0,0,1.73633.32129,5.38956,5.38956,0,0,0,2.23535-.49316,4.79162,4.79162,0,0,0,1.77734-1.44336l2.17969,2.31738a6.6518,6.6518,0,0,1-1.4082,1.46289,7.64149,7.64149,0,0,1-2.15137,1.1543A8.74816,8.74816,0,0,1,851.34766,560.833Z" transform="translate(448.28976 353.83294)"/><path d="M869.66309,555.72852a1.43682,1.43682,0,0,0-.28516-.85938,2.49534,2.49534,0,0,0-1.03223-.70508,10.675,10.675,0,0,0-2.15332-.58594,15.65629,15.65629,0,0,1-2.35644-.67578,7.75438,7.75438,0,0,1-1.88867-1.0039,4.41876,4.41876,0,0,1-1.25489-1.41114,3.90092,3.90092,0,0,1-.46679-1.88183,4.42,4.42,0,0,1,.43359-1.97559,5.028,5.028,0,0,1,1.293-1.65332,6.28009,6.28009,0,0,1,2.082-1.14551,8.94467,8.94467,0,0,1,2.78906-.4375,9.17607,9.17607,0,0,1,3.74219.6543,5.59445,5.59445,0,0,1,2.4209,1.875,4.70608,4.70608,0,0,1,.86816,2.73926l-4.43359.04687a2.47191,2.47191,0,0,0-.28223-1.15918,1.94316,1.94316,0,0,0-.83984-.80761,3.07351,3.07351,0,0,0-1.458-.28418,2.95691,2.95691,0,0,0-1.27539.2666,1.97646,1.97646,0,0,0-.81641.68652,1.62607,1.62607,0,0,0-.27539.9336,1.4348,1.4348,0,0,0,.168.68457,1.60624,1.60624,0,0,0,.53711.541,4.36142,4.36142,0,0,0,.96777.44336,10.46993,10.46993,0,0,0,1.47461.36231,17.374,17.374,0,0,1,3.22852.92871,5.68322,5.68322,0,0,1,2.26367,1.57715,4.01881,4.01881,0,0,1,.8584,2.63183,4.25893,4.25893,0,0,1-.4707,2.03809,4.81784,4.81784,0,0,1-1.39942,1.623,6.93743,6.93743,0,0,1-2.19824,1.08594,10.24973,10.24973,0,0,1-2.88281.40723,8.48768,8.48768,0,0,1-3.94239-.78906,6.15358,6.15358,0,0,1-2.45507-2.0918,4.828,4.828,0,0,1-.85157-2.63184l4.20313-.04492a2.43549,2.43549,0,0,0,.48437,1.458,2.474,2.474,0,0,0,1.13282.78906,4.36584,4.36584,0,0,0,1.48925.23047,3.72078,3.72078,0,0,0,1.42872-.25293,2.01184,2.01184,0,0,0,.86328-.65625A1.555,1.555,0,0,0,869.66309,555.72852Z" transform="translate(448.28976 353.83294)"/><path d="M876.63574,539.25586a2.09517,2.09517,0,0,1,.66016-1.6084,2.92264,2.92264,0,0,1,3.626-.03808,2.21368,2.21368,0,0,1,.0332,3.20312,2.91876,2.91876,0,0,1-3.626.03809A2.09467,2.09467,0,0,1,876.63574,539.25586Zm4.77149,4.293L881.583,560.208l-4.4502.0459-.17578-16.65918Z" transform="translate(448.28976 353.83294)"/><path d="M884.499,552.0459l-.00293-.32324a12.04314,12.04314,0,0,1,.43262-3.47657,8.22807,8.22807,0,0,1,1.31055-2.70117,6.02112,6.02112,0,0,1,2.09961-1.76074,6.26243,6.26243,0,0,1,2.81054-.64551,5.73775,5.73775,0,0,1,2.79395.58692,5.07271,5.07271,0,0,1,1.86621,1.72656,9.43359,9.43359,0,0,1,1.1582,2.65234,25.54941,25.54941,0,0,1,.67481,3.3418l.00781.708a19.73283,19.73283,0,0,1-.65918,3.24023,9.84861,9.84861,0,0,1-1.18848,2.624,5.13834,5.13834,0,0,1-4.50293,2.39454,6.03216,6.03216,0,0,1-2.78515-.60157,6.2074,6.2074,0,0,1-2.13574-1.748,8.3116,8.3116,0,0,1-1.375-2.666A11.4398,11.4398,0,0,1,884.499,552.0459Zm11.11817-8.64649,4.01855-.042.16992,16.10449a7.08892,7.08892,0,0,1-.96875,3.88184,6.3646,6.3646,0,0,1-2.78418,2.44727,9.98154,9.98154,0,0,1-4.17871.86816,9.558,9.558,0,0,1-2.21289-.25488,8.6635,8.6635,0,0,1-2.22461-.83887,5.81965,5.81965,0,0,1-1.77929-1.46l1.92871-2.6377a5.624,5.624,0,0,0,1.7998,1.375,5.01277,5.01277,0,0,0,2.25293.47657,4.32068,4.32068,0,0,0,2.02735-.46,3.01886,3.01886,0,0,0,1.26464-1.292,4.25906,4.25906,0,0,0,.42579-2.02832l-.12891-12.28711Zm-6.68653,8.27735.00293.32324a8.77525,8.77525,0,0,0,.21973,1.92285,5.06621,5.06621,0,0,0,.63965,1.57129,3.08922,3.08922,0,0,0,1.07324,1.05078,2.92288,2.92288,0,0,0,1.52051.36133,3.51484,3.51484,0,0,0,1.98144-.53613,3.14369,3.14369,0,0,0,1.13965-1.43653,6.17256,6.17256,0,0,0,.42481-2.09863l-.02149-2.0166a6.93613,6.93613,0,0,0-.28027-1.74609,4.1953,4.1953,0,0,0-.66016-1.32422,2.78672,2.78672,0,0,0-1.08691-.85059,3.69283,3.69283,0,0,0-1.57324-.292,2.84268,2.84268,0,0,0-1.5127.4082,3.254,3.254,0,0,0-1.05176,1.082,5.30924,5.30924,0,0,0-.623,1.59961A8.6547,8.6547,0,0,0,888.93066,551.67676Z" transform="translate(448.28976 353.83294)"/><path d="M907.46387,546.832l.13769,13.10254-4.43359.04688-.17578-16.65918,4.15625-.04395Zm-.60254,4.19434-1.20117.01269a10.84857,10.84857,0,0,1,.44238-3.33789,7.64677,7.64677,0,0,1,1.31348-2.55566,5.83686,5.83686,0,0,1,2.0371-1.63672,6.20652,6.20652,0,0,1,2.666-.59082,6.482,6.482,0,0,1,2.14453.31641,4.15343,4.15343,0,0,1,1.68067,1.05957,4.89615,4.89615,0,0,1,1.09863,1.94433,10.12611,10.12611,0,0,1,.4082,2.96777l.11231,10.624-4.46485.04687-.1123-10.63965a3.92676,3.92676,0,0,0-.32617-1.72168,1.77208,1.77208,0,0,0-.91016-.86035,3.69746,3.69746,0,0,0-1.457-.23925,3.20507,3.20507,0,0,0-1.54395.37109,3.02851,3.02851,0,0,0-1.06738.98926,4.65363,4.65363,0,0,0-.624,1.46191A7.05108,7.05108,0,0,0,906.86133,551.02637Z" transform="translate(448.28976 353.83294)"/></g></g><g id="petal3" class="cls-3"><g id="petal3_path"><path class="cls-1" d="M541.35686,301.65376c-41.8531,36.47335-37.68159,116.267,8.56367,179.61109,45.15458,61.85023,117.03517,89.68139,164.02357,62.68849,39.61475-20.32293,97.18781-58.45606,145.23954-129.76144,41.73193-61.92735,61.88173-127.50569,72.00332-178.56861,3.3609-16.95553-12.40263-38.53841-29.35911-40.11548-55.59041-5.17028-127.86656-4.31893-203.22708,18.90443C626.51389,236.62678,575.26568,272.02039,541.35686,301.65376Z" transform="translate(448.28976 353.83294)"/><g class="cls-11"><use transform="matrix(0.7313, 1.02669, -0.71345, 0.50818, 1033.32906, 16.15205)" xlink:href="#image"/></g></g><g id="text3"><path d="M676.97656,384.61914l13.90918,17.582-3.623,2.86572-13.90918-17.582Zm13.76758.75,2.23535,2.82617-9.17676,7.26026-2.23632-2.82618Zm-3.08105-9.20459,13.90918,17.582-3.61036,2.85645-13.90918-17.582Z" transform="translate(448.28976 353.83294)"/><path d="M708.02637,379.19727l1.00683-.83643a11.78481,11.78481,0,0,1,1.61426,2.66064,7.28157,7.28157,0,0,1,.62207,2.64844,5.29291,5.29291,0,0,1-.51855,2.47119,6.15556,6.15556,0,0,1-1.80371,2.16309,6.96611,6.96611,0,0,1-1.97071,1.11816,4.39317,4.39317,0,0,1-2.05566.23194,5.0882,5.0882,0,0,1-2.08692-.80274,8.72884,8.72884,0,0,1-2.083-1.97558l-6.67774-8.44043,3.47754-2.75147,6.69727,8.46582a3.82708,3.82708,0,0,0,.91211.86768,2.1511,2.1511,0,0,0,.9082.34082,1.82675,1.82675,0,0,0,.88476-.11035,3.22281,3.22281,0,0,0,.85254-.49707,3.71971,3.71971,0,0,0,1.35352-1.77686,2.98508,2.98508,0,0,0-.05957-1.88672A6.59643,6.59643,0,0,0,708.02637,379.19727Zm1.73437,2.98632-7.8623-9.93847,3.47754-2.751,10.33593,13.06641-3.27246,2.58886Z" transform="translate(448.28976 353.83294)"/><path d="M713.63867,367.35547,721.835,377.7168l-3.49023,2.76074-10.33594-13.06641,3.27246-2.58838Zm2.18164,3.75146-.96582.76416a11.54974,11.54974,0,0,1-1.65918-2.78027,7.71922,7.71922,0,0,1-.6084-2.77832,5.69091,5.69091,0,0,1,.55469-2.58838,6.27827,6.27827,0,0,1,1.83692-2.21875,5.999,5.999,0,0,1,1.79882-1.00146,4.07468,4.07468,0,0,1,1.88965-.17969,4.74417,4.74417,0,0,1,1.94336.78076,8.515,8.515,0,0,1,1.94629,1.86523l6.89746,8.71875-3.47754,2.75147-6.59179-8.332a4.00986,4.00986,0,0,0-1.33008-1.186,1.752,1.752,0,0,0-1.2168-.13623,3.338,3.338,0,0,0-1.21.6416,3.04773,3.04773,0,0,0-.958,1.21,3.01079,3.01079,0,0,0-.2207,1.42089,4.53193,4.53193,0,0,0,.41992,1.52393A7.68211,7.68211,0,0,0,715.82031,371.10693Zm7.46192-6.55029-1.11914,1.14111a10.79266,10.79266,0,0,1-1.5625-2.63232,7.46937,7.46937,0,0,1-.57422-2.687,5.60267,5.60267,0,0,1,.54883-2.54444,6.183,6.183,0,0,1,1.80566-2.18457,6.52845,6.52845,0,0,1,1.92969-1.084,4.17206,4.17206,0,0,1,2-.18945,4.97787,4.97787,0,0,1,2.05371.85937,9.89109,9.89109,0,0,1,2.12012,2.07178l6.60156,8.34473-3.49024,2.76074-6.60058-8.34473a4.0946,4.0946,0,0,0-1.3291-1.1958,1.68257,1.68257,0,0,0-1.20118-.12891,3.37765,3.37765,0,0,0-1.19336.6377,2.96371,2.96371,0,0,0-.90234,1.11816,2.84875,2.84875,0,0,0-.24609,1.30274,3.9514,3.9514,0,0,0,.32715,1.38037A6.006,6.006,0,0,0,723.28223,364.55664Z" transform="translate(448.28976 353.83294)"/><path d="M744.5,354.99609l-4.60547-5.82129a3.30265,3.30265,0,0,0-1.05957-.91748,1.96494,1.96494,0,0,0-1.19238-.20459,2.73219,2.73219,0,0,0-1.30567.62012,2.963,2.963,0,0,0-.84472.99219,1.9052,1.9052,0,0,0-.20313,1.083,2.03685,2.03685,0,0,0,.45313,1.04492l-3.47754,2.75146a4.33957,4.33957,0,0,1-.86426-1.88769,5.09837,5.09837,0,0,1,.07617-2.21094,7.17116,7.17116,0,0,1,1.0459-2.28906,9.53986,9.53986,0,0,1,2.03027-2.13672,8.68736,8.68736,0,0,1,3.10547-1.63281,5.3245,5.3245,0,0,1,3.07032.04638,5.66692,5.66692,0,0,1,2.6875,1.99561l4.42382,5.59082a12.03288,12.03288,0,0,0,1.52246,1.65186,5.91864,5.91864,0,0,0,1.32715.88378l.16211.20606-3.51367,2.77978a6.23793,6.23793,0,0,1-1.43555-1.03418A13.01688,13.01688,0,0,1,744.5,354.99609Zm-3.50586-5.37451,1.582,1.94971-1.94433,1.53809a5.16857,5.16857,0,0,0-1.07129,1.10156,2.89191,2.89191,0,0,0-.48438,1.09961,2.18428,2.18428,0,0,0,.043,1.03564,2.78057,2.78057,0,0,0,.499.9419,2.01378,2.01378,0,0,0,.84082.64013,1.79565,1.79565,0,0,0,1.03028.08692,2.475,2.475,0,0,0,1.06347-.51758,3.596,3.596,0,0,0,1.11622-1.39307,3.24572,3.24572,0,0,0,.28808-1.48486,2.067,2.067,0,0,0-.35547-1.13184l2.083.74756a7.86369,7.86369,0,0,1,.28711,1.4419,6.12343,6.12343,0,0,1-.05176,1.66015,5.23985,5.23985,0,0,1-.61719,1.72559,5.62455,5.62455,0,0,1-1.457,1.6333,6.3586,6.3586,0,0,1-2.64843,1.28027,5.10247,5.10247,0,0,1-2.69239-.12744,4.57442,4.57442,0,0,1-2.18554-1.55908,5.27182,5.27182,0,0,1-1.05664-2.12988,4.57146,4.57146,0,0,1,.07617-2.24854,6.92484,6.92484,0,0,1,1.23047-2.3291,13.95368,13.95368,0,0,1,2.40918-2.36572Z" transform="translate(448.28976 353.83294)"/><path d="M748.29,340.08105l8.12891,10.27637-3.47852,2.75147-10.33594-13.06641,3.26074-2.57959Zm2.09082,3.68555-.94238.74512a10.85325,10.85325,0,0,1-1.69336-2.91016,7.65185,7.65185,0,0,1-.52637-2.82324,5.84218,5.84218,0,0,1,.60937-2.543,6.19886,6.19886,0,0,1,1.7461-2.09912,6.46027,6.46027,0,0,1,1.88867-1.062,4.15134,4.15134,0,0,1,1.97949-.19092,4.89656,4.89656,0,0,1,2.05762.86475,10.11528,10.11528,0,0,1,2.13965,2.09668l6.5918,8.332-3.502,2.77051-6.60156-8.34473a3.92532,3.92532,0,0,0-1.31055-1.16162,1.78013,1.78013,0,0,0-1.24707-.12354,3.71076,3.71076,0,0,0-1.29785.70313,3.2026,3.2026,0,0,0-.99414,1.23877,3.03785,3.03785,0,0,0-.23926,1.43506,4.671,4.671,0,0,0,.40235,1.53808A7.07759,7.07759,0,0,0,750.38086,343.7666Z" transform="translate(448.28976 353.83294)"/><path d="M763.18262,316.4209l13.90918,17.582-3.61133,2.85645-13.9082-17.582Z" transform="translate(448.28976 353.83294)"/><path d="M775.53125,318.52979l8.12891,10.27636-3.47754,2.75147-10.33594-13.06641,3.25977-2.5791Zm2.0918,3.68554-.94239.74512a10.84834,10.84834,0,0,1-1.69336-2.91065,7.65,7.65,0,0,1-.52636-2.82324,5.82968,5.82968,0,0,1,.60937-2.54248,6.18747,6.18747,0,0,1,1.7461-2.09912,6.449,6.449,0,0,1,1.88867-1.062,4.15134,4.15134,0,0,1,1.97949-.19092,4.90158,4.90158,0,0,1,2.05762.86426,10.13112,10.13112,0,0,1,2.13965,2.09717l6.59179,8.332-3.50195,2.77051-6.60156-8.34473a3.92335,3.92335,0,0,0-1.31153-1.16162,1.77752,1.77752,0,0,0-1.24609-.12354,3.70461,3.70461,0,0,0-1.29785.70362,3.19243,3.19243,0,0,0-.99414,1.23828,3.02581,3.02581,0,0,0-.23926,1.43506,4.67395,4.67395,0,0,0,.40234,1.53808A7.078,7.078,0,0,0,777.62305,322.21533Z" transform="translate(448.28976 353.83294)"/><path d="M781.9082,303.7085l3.47754-2.75147,9.77149,12.35352a2.56262,2.56262,0,0,0,.83886.75,1.045,1.045,0,0,0,.78321.05761,2.74438,2.74438,0,0,0,.85156-.48632,6.47786,6.47786,0,0,0,.56152-.49366c.15723-.15771.28614-.29638.38867-.415l2.03711,2.54981a8.23646,8.23646,0,0,1-.78515.99365,9.11924,9.11924,0,0,1-1.08008.99268,6.21848,6.21848,0,0,1-2.29883,1.20117,3.48012,3.48012,0,0,1-2.28027-.18994,5.92042,5.92042,0,0,1-2.2168-1.85889Zm8.27344-1.3042,1.94922,2.46386-7.60742,6.01807-1.94922-2.46387Z" transform="translate(448.28976 353.83294)"/><path d="M808.69043,309.39746a9.20221,9.20221,0,0,1-3.11523,1.66943,7.45865,7.45865,0,0,1-3.12208.26075,7.65723,7.65723,0,0,1-2.88574-1.00489,8.60061,8.60061,0,0,1-2.39062-2.10351l-.38184-.4834a10.59563,10.59563,0,0,1-1.72754-3.05225,8.06066,8.06066,0,0,1-.47656-3.09668,6.76,6.76,0,0,1,.82227-2.91845,8.17472,8.17472,0,0,1,2.17285-2.51416,7.953,7.953,0,0,1,2.82617-1.49024,6.24355,6.24355,0,0,1,2.83789-.124,7.26537,7.26537,0,0,1,2.70508,1.14941,10.97078,10.97078,0,0,1,2.4414,2.3169l1.14649,1.44922L799.1582,307.6709l-1.834-2.31836,6.96777-5.51172-.21094-.26562a3.98278,3.98278,0,0,0-1.28613-1.09278,2.66714,2.66714,0,0,0-1.5-.29492,3.05137,3.05137,0,0,0-1.5957.71289,2.83833,2.83833,0,0,0-.94434,1.23828,2.91606,2.91606,0,0,0-.13476,1.48,5.60051,5.60051,0,0,0,.54883,1.63721,10.12558,10.12558,0,0,0,1.11523,1.71924l.38281.4834a5.76057,5.76057,0,0,0,1.36914,1.27246,4.32869,4.32869,0,0,0,1.54785.64013,3.6202,3.6202,0,0,0,1.60645-.05371,4.22816,4.22816,0,0,0,1.56836-.80859,5.39268,5.39268,0,0,0,1.46582-1.7583,4.7924,4.7924,0,0,0,.52344-2.23l3.14257.49756a6.63192,6.63192,0,0,1-.21972,2.019,7.63438,7.63438,0,0,1-.99414,2.23A8.73764,8.73764,0,0,1,808.69043,309.39746Z" transform="translate(448.28976 353.83294)"/><path d="M811.2373,290.37988l8.082,10.2168-3.47754,2.751-10.33692-13.06641,3.27246-2.58838Zm1.61524-6.04785,2.49121,3.27246q-.28418.16407-.66309.415-.37939.25269-.66894.48145a4.95075,4.95075,0,0,0-1.12695,1.19482,2.80182,2.80182,0,0,0-.293,2.55762,5.34834,5.34834,0,0,0,.73632,1.34131l-.87109.3374a12.92027,12.92027,0,0,1-1.5957-2.5376,8.06687,8.06687,0,0,1-.73242-2.45264,4.62013,4.62013,0,0,1,.22656-2.18212,3.90249,3.90249,0,0,1,1.28613-1.7251,5.564,5.564,0,0,1,.626-.42627A2.98614,2.98614,0,0,1,812.85254,284.332Z" transform="translate(448.28976 353.83294)"/><path d="M829.51074,292.53418l-3.502,2.77051-11.25293-14.22461a6.32342,6.32342,0,0,1-1.39648-2.9707,4.82711,4.82711,0,0,1,.43164-2.85352,7.2744,7.2744,0,0,1,2.126-2.53613,8.05654,8.05654,0,0,1,.98242-.669q.49952-.28638.999-.5249l2.03613,2.64892a3.83566,3.83566,0,0,0-.5498.29786c-.18165.11718-.38575.26562-.61036.44384a3.13389,3.13389,0,0,0-.90234,1.05616,1.88493,1.88493,0,0,0-.17773,1.15234,2.57892,2.57892,0,0,0,.56347,1.18457ZM821.7832,277.4043l1.94922,2.46386-8.05469,6.37159-1.94921-2.46387Z" transform="translate(448.28976 353.83294)"/><path d="M838.65234,280.5127l-4.60546-5.82129a3.31332,3.31332,0,0,0-1.06055-.918,1.96107,1.96107,0,0,0-1.19238-.2041,2.716,2.716,0,0,0-1.30469.62011,2.96213,2.96213,0,0,0-.84571.99219,1.90291,1.90291,0,0,0-.20214,1.083,2.02859,2.02859,0,0,0,.45312,1.04492l-3.47851,2.751a4.34817,4.34817,0,0,1-.86426-1.8877,5.09875,5.09875,0,0,1,.07715-2.21094,7.16765,7.16765,0,0,1,1.04492-2.28906,9.58449,9.58449,0,0,1,2.03027-2.13672,8.69123,8.69123,0,0,1,3.10645-1.63281,5.31671,5.31671,0,0,1,3.06933.04688,5.66462,5.66462,0,0,1,2.68848,1.99511l4.42285,5.59082a12.09434,12.09434,0,0,0,1.52246,1.65186,5.88969,5.88969,0,0,0,1.32813.88379l.16211.20605-3.51465,2.77979a6.22953,6.22953,0,0,1-1.43555-1.03418A13.09077,13.09077,0,0,1,838.65234,280.5127Zm-3.50586-5.375,1.58106,1.9497-1.94434,1.53809a5.1591,5.1591,0,0,0-1.07129,1.102,2.89188,2.89188,0,0,0-.48437,1.09961,2.17214,2.17214,0,0,0,.04394,1.03564,2.75853,2.75853,0,0,0,.49805.94141,2.01994,2.01994,0,0,0,.84082.64014,1.79158,1.79158,0,0,0,1.03027.08691,2.4735,2.4735,0,0,0,1.06348-.51709,3.61129,3.61129,0,0,0,1.11719-1.39307,3.25889,3.25889,0,0,0,.28711-1.48535,2.07623,2.07623,0,0,0-.35449-1.13183l2.083.748a7.94342,7.94342,0,0,1,.28614,1.44141,6.16172,6.16172,0,0,1-.05078,1.66016,5.24252,5.24252,0,0,1-.61817,1.72558,5.62208,5.62208,0,0,1-1.45605,1.6333,6.37106,6.37106,0,0,1-2.64844,1.28076,5.1013,5.1013,0,0,1-2.69238-.12793,4.57245,4.57245,0,0,1-2.18653-1.55908,5.26935,5.26935,0,0,1-1.05566-2.12988,4.56009,4.56009,0,0,1,.07617-2.24854,6.89909,6.89909,0,0,1,1.23047-2.3291,13.944,13.944,0,0,1,2.4082-2.36523Z" transform="translate(448.28976 353.83294)"/><path d="M850.60449,271.82227a3.207,3.207,0,0,0,.93946-1.14551,2.43106,2.43106,0,0,0,.2246-1.31738,2.61383,2.61383,0,0,0-.54882-1.30225l3.27246-2.58887a5.52265,5.52265,0,0,1,1.19726,3.02832,6.36808,6.36808,0,0,1-.61621,3.21533,7.678,7.678,0,0,1-2.24707,2.76954,8.16527,8.16527,0,0,1-3.05176,1.58886,6.54512,6.54512,0,0,1-2.99121.07959,7.72623,7.72623,0,0,1-2.78418-1.2124,11.03278,11.03278,0,0,1-2.41406-2.28174l-.27734-.35058a11.09932,11.09932,0,0,1-1.67481-2.88623,7.74218,7.74218,0,0,1-.53906-2.98975,6.58566,6.58566,0,0,1,.75879-2.88818,8.0989,8.0989,0,0,1,2.23144-2.58936,7.83772,7.83772,0,0,1,3.30664-1.61426,5.924,5.924,0,0,1,3.29786.24756,6.59311,6.59311,0,0,1,2.84179,2.13916l-3.27246,2.58887a3.53985,3.53985,0,0,0-1.208-.96729,2.67,2.67,0,0,0-1.42285-.25976,2.74531,2.74531,0,0,0-1.45312.63135,2.82972,2.82972,0,0,0-.99219,1.30322,2.72377,2.72377,0,0,0-.05957,1.4624,5.45313,5.45313,0,0,0,.61523,1.53467,12.7137,12.7137,0,0,0,1.04786,1.53613l.27734.35059a13.70753,13.70753,0,0,0,1.25195,1.38379,5.07229,5.07229,0,0,0,1.35254.95263,2.72582,2.72582,0,0,0,1.4336.26026A2.89156,2.89156,0,0,0,850.60449,271.82227Z" transform="translate(448.28976 353.83294)"/><path d="M866.25391,263.8584a9.19566,9.19566,0,0,1-3.11524,1.66992,7.46646,7.46646,0,0,1-3.12207.26074,7.65715,7.65715,0,0,1-2.88574-1.00488,8.60069,8.60069,0,0,1-2.39063-2.10352l-.38183-.48339a10.59553,10.59553,0,0,1-1.72754-3.05225,8.08043,8.08043,0,0,1-.47656-3.09668,6.75814,6.75814,0,0,1,.82226-2.91846,8.16963,8.16963,0,0,1,2.17285-2.51416,7.93938,7.93938,0,0,1,2.82715-1.48974,6.22838,6.22838,0,0,1,2.83594-.12452,7.25884,7.25884,0,0,1,2.70508,1.14893,10.95646,10.95646,0,0,1,2.44238,2.31738l1.14649,1.44922-10.38477,8.21533-1.834-2.31836,6.96777-5.51171-.21094-.26563a3.975,3.975,0,0,0-1.28613-1.09228,2.66332,2.66332,0,0,0-1.5-.29541,3.05459,3.05459,0,0,0-1.5957.71289,2.84576,2.84576,0,0,0-.94434,1.23828,2.91617,2.91617,0,0,0-.13477,1.48,5.60061,5.60061,0,0,0,.54883,1.63721,10.14493,10.14493,0,0,0,1.11524,1.71923l.38281.4834a5.76,5.76,0,0,0,1.36914,1.27246,4.34008,4.34008,0,0,0,1.54687.64014,3.63117,3.63117,0,0,0,1.60743-.05322,4.23141,4.23141,0,0,0,1.56836-.80957,5.386,5.386,0,0,0,1.46582-1.75782,4.79093,4.79093,0,0,0,.52343-2.23l3.1416.49756a6.603,6.603,0,0,1-.21874,2.01953,7.61749,7.61749,0,0,1-.99415,2.2295A8.72723,8.72723,0,0,1,866.25391,263.8584Z" transform="translate(448.28976 353.83294)"/></g></g><g id="petal2" class="cls-3"><path class="cls-1" d="M409.53965,369.20015c-8.15462,52.95679,35.39229,106.01721,97.492,119.978,60.63513,13.63159,120.9822-14.05522,137.28578-63.75105a441.8215,441.8215,0,0,0,26.664-186.003C666.02019,168.74778,645.35,109.67468,625.68461,67.32937c-6.52992-14.06084-27.693-18.81327-39.37371-8.79392-38.29407,32.8476-84.203,80.85045-120.63019,146.52029A490.0832,490.0832,0,0,0,409.53965,369.20015Z" transform="translate(448.28976 353.83294)"/><g class="cls-12"><use transform="matrix(0.99482, 0.23825, -0.19718, 0.82332, 566.90717, 237.008)" xlink:href="#image"/></g></g><g id="seed_group"><g id="seed"><circle id="seed_path-2" data-name="seed_path" class="cls-1" cx="950.45484" cy="868.96293" r="116.93657"/><g class="cls-13"><image id="seed_image" width="1000" height="1000" transform="matrix(0.00315, 0.3972, -0.32249, 0.00256, 1154.25564, 592.6073)" xlink:href="https://cdn.jsdelivr.net/gh/Dhruvapratapverma/Dhruva-portfolio/petal2.png"/></g></g><text class="cls-14" transform="translate(899.58224 884.01262)"><tspan class="cls-15">H</tspan><tspan x="27.91748" y="0">ome</tspan></text></g></svg>